<?xml version="1.0" standalone="no"?><!DOCTYPE svg PUBLIC "-//W3C//DTD SVG 1.1//EN" "http://www.w3.org/Graphics/SVG/1.1/DTD/svg11.dtd"><svg t="1642063595363" class="icon" viewBox="0 0 1024 1024" version="1.1" xmlns="http://www.w3.org/2000/svg" p-id="4127" xmlns:xlink="http://www.w3.org/1999/xlink" width="200" height="200"><defs><style type="text/css"></style></defs><path d="M590.222222 133.688889h-184.888889C237.511111 133.688889 99.555556 273.066667 99.555556 440.888889v173.511111c0 169.244444 137.955556 307.2 307.2 307.2h183.466666c169.244444 0 307.2-137.955556 307.2-307.2V440.888889c0-167.822222-137.955556-307.2-307.2-307.2z m5.688889 591.644444c-29.866667 14.222222-61.155556 21.333333-93.866667 21.333334-120.888889 0-219.022222-98.133333-219.022222-219.022223 0-31.288889 7.111111-62.577778 19.911111-91.022222l-45.511111 4.266667c-9.955556 1.422222-18.488889-7.111111-19.911111-17.066667-1.422222-9.955556 7.111111-18.488889 17.066667-19.911111l78.222222-7.111111c7.111111 0 14.222222 2.844444 17.066667 8.533333 4.266667 5.688889 2.844444 14.222222 0 19.911111a184.888889 184.888889 0 0 0-31.288889 102.4c0 100.977778 82.488889 182.044444 182.044444 182.044445 27.022222 0 54.044444-5.688889 78.222222-17.066667 8.533333-4.266667 19.911111 0 24.177778 8.533334 5.688889 9.955556 1.422222 19.911111-7.111111 24.177777z m17.066667-164.977777c0 2.844444-1.422222 5.688889-2.844445 7.111111-1.422222 1.422222-4.266667 2.844444-7.111111 2.844444h-59.733333v59.733333c0 5.688889-4.266667 9.955556-9.955556 9.955556H469.333333c-2.844444 0-5.688889-1.422222-7.111111-2.844444-1.422222-1.422222-2.844444-4.266667-2.844444-7.111112v-59.733333h-59.733334c-2.844444 0-5.688889-1.422222-7.111111-2.844444-1.422222-1.422222-2.844444-4.266667-2.844444-7.111111v-65.422223c0-2.844444 1.422222-5.688889 2.844444-7.111111 1.422222-1.422222 4.266667-2.844444 7.111111-2.844444h59.733334V426.666667c0-2.844444 1.422222-5.688889 2.844444-7.111111 1.422222-1.422222 4.266667-2.844444 7.111111-2.844445h65.422223c2.844444 0 5.688889 1.422222 7.111111 2.844445 1.422222 1.422222 2.844444 4.266667 2.844444 7.111111v59.733333h59.733333c2.844444 0 5.688889 1.422222 7.111112 2.844444 1.422222 1.422222 2.844444 4.266667 2.844444 7.111112v64z m128 93.866666l-71.111111 4.266667H668.444444c-7.111111 0-12.8-2.844444-15.644444-8.533333-2.844444-5.688889-2.844444-12.8 0-19.911112 19.911111-29.866667 31.288889-65.422222 31.288889-100.977777 0-100.977778-82.488889-182.044444-182.044445-182.044445-31.288889 0-61.155556 8.533333-88.177777 22.755556-8.533333 4.266667-19.911111 1.422222-24.177778-7.111111-4.266667-8.533333-1.422222-19.911111 7.111111-24.177778 32.711111-18.488889 69.688889-27.022222 106.666667-27.022222 120.888889 0 219.022222 98.133333 219.022222 219.022222 0 31.288889-7.111111 62.577778-19.911111 91.022222l38.4-2.844444c9.955556 0 18.488889 7.111111 19.911111 17.066666-2.844444 8.533333-9.955556 17.066667-19.911111 18.488889z" fill="#5E74FE" p-id="4128"></path></svg>