<?xml version="1.0" standalone="no"?><!DOCTYPE svg PUBLIC "-//W3C//DTD SVG 1.1//EN" "http://www.w3.org/Graphics/SVG/1.1/DTD/svg11.dtd"><svg t="1639126224221" class="icon" viewBox="0 0 1024 1024" version="1.1" xmlns="http://www.w3.org/2000/svg" p-id="24473" xmlns:xlink="http://www.w3.org/1999/xlink" width="200" height="200"><defs><style type="text/css"></style></defs><path d="M778.883549 654.90573c-15.142329-5.678373-30.284658 3.785582-35.963031 18.927911-5.678373 15.142329 3.785582 30.284658 18.927911 35.963032 83.28281 26.499076 134.38817 66.247689 134.38817 102.210721 0 64.354898-162.780037 136.280961-378.558226 136.280961s-378.558226-71.926063-378.558225-136.280961c0-34.07024 49.212569-71.926063 126.817005-98.425139 15.142329-5.678373 22.713494-20.820702 17.035121-35.963031-5.678373-15.142329-20.820702-22.713494-35.963032-17.03512-105.996303 35.963031-164.672828 90.853974-164.672828 153.316081 0 109.781885 187.386322 193.064695 435.341959 193.064695s435.341959-83.28281 435.34196-193.064695c0-68.140481-62.462107-123.031423-174.136784-158.994455z"  p-id="24474"></path><path d="M515.785582 842.292052c130.602588 0 295.275416-353.951941 295.275416-524.303143 0-176.029575-132.495379-317.988909-295.275416-317.988909S220.510166 141.959335 220.510166 317.988909c0 164.672828 168.45841 524.303142 295.275416 524.303143z m0-785.508318c132.495379 0 238.491682 117.35305 238.491682 261.205175 0 157.101664-158.994455 467.519409-238.491682 467.519409-71.926063 0-238.491682-300.953789-238.491682-467.519409 0-143.852126 107.889094-261.205176 238.491682-261.205175z"  p-id="24475"></path><path d="M646.38817 263.097967c0-71.926063-58.676525-130.602588-130.602588-130.602588-71.926063 0-130.602588 58.676525-130.602588 130.602588 0 71.926063 58.676525 130.602588 130.602588 130.602588 71.926063 0 130.602588-58.676525 130.602588-130.602588z m-202.528651 0c0-39.748614 32.177449-73.818854 73.818854-73.818854s73.818854 32.177449 73.818854 73.818854-32.177449 73.818854-73.818854 73.818854-73.818854-34.07024-73.818854-73.818854z"  p-id="24476"></path></svg>