<?xml version="1.0" standalone="no"?><!DOCTYPE svg PUBLIC "-//W3C//DTD SVG 1.1//EN" "http://www.w3.org/Graphics/SVG/1.1/DTD/svg11.dtd"><svg t="1639126578695" class="icon" viewBox="0 0 1048 1024" version="1.1" xmlns="http://www.w3.org/2000/svg" p-id="25505" xmlns:xlink="http://www.w3.org/1999/xlink" width="204.6875" height="200"><defs><style type="text/css"></style></defs><path d="M540.444444 1.896296C259.792593 1.896296 32.237037 229.451852 32.237037 510.103704s227.555556 508.207407 508.207407 508.207407 508.207407-227.555556 508.207408-508.207407S819.2 1.896296 540.444444 1.896296z m0 948.148148c-242.725926 0-441.837037-197.214815-441.837037-441.837037S295.822222 68.266667 540.444444 68.266667 980.385185 265.481481 980.385185 508.207407 783.17037 950.044444 540.444444 950.044444z" fill="#5E74FE" p-id="25506"></path><path d="M540.444444 191.525926c-174.459259 0-318.577778 142.222222-318.577777 318.577778s142.222222 318.577778 318.577777 318.577777h17.066667c-146.014815-3.792593-263.585185-123.259259-263.585185-271.17037v-1.896296c-1.896296-15.17037-3.792593-30.340741-3.792593-45.511111 0-138.42963 111.881481-252.207407 252.207408-252.207408 72.059259 0 136.533333 30.340741 182.044444 77.748148 68.266667 49.303704 113.777778 128.948148 113.777778 219.970371 0 54.992593-17.066667 108.088889-45.511111 149.807407 43.614815-54.992593 68.266667-123.259259 68.266667-197.214815-3.792593-174.459259-146.014815-316.681481-320.474075-316.681481z" fill="#5E74FE" p-id="25507"></path><path d="M540.444444 760.414815c138.42963 0 252.207407-111.881481 252.207408-252.207408 0-66.37037-26.548148-128.948148-70.162963-172.562963-45.511111-32.237037-100.503704-51.2-159.288889-51.2-149.807407 0-269.274074 121.362963-271.17037 269.274075 22.755556 117.57037 125.155556 206.696296 248.414814 206.696296z m-34.133333-407.703704c0-18.962963 15.17037-34.133333 34.133333-34.133333s34.133333 15.17037 34.133334 34.133333v123.259259h94.814815c18.962963 0 34.133333 15.17037 34.133333 34.133334s-15.17037 34.133333-34.133333 34.133333h-128.948149c-18.962963 0-34.133333-15.17037-34.133333-34.133333v-157.392593zM555.614815 824.888889h7.585185c94.814815 0 176.355556-47.407407 225.659259-121.362963-54.992593 72.059259-138.42963 117.57037-233.244444 121.362963z" fill="#5E74FE" opacity=".25" p-id="25508"></path><path d="M720.592593 335.644444c43.614815 45.511111 70.162963 106.192593 70.162963 172.562963 0 138.42963-111.881481 252.207407-252.207408 252.207408-123.259259 0-225.659259-89.125926-246.518518-206.696296v1.896296c0 147.911111 117.57037 265.481481 263.585185 271.17037 94.814815-5.688889 178.251852-51.2 233.244444-119.466666 28.444444-43.614815 45.511111-94.814815 45.511111-149.807408 0-92.918519-45.511111-172.562963-113.777777-221.866667z" fill="#5E74FE" p-id="25509"></path><path d="M720.592593 335.644444c43.614815 45.511111 70.162963 106.192593 70.162963 172.562963 0 138.42963-111.881481 252.207407-252.207408 252.207408-123.259259 0-225.659259-89.125926-246.518518-206.696296v1.896296c0 147.911111 117.57037 265.481481 263.585185 271.17037 94.814815-5.688889 178.251852-51.2 233.244444-119.466666 28.444444-43.614815 45.511111-94.814815 45.511111-149.807408 0-92.918519-45.511111-172.562963-113.777777-221.866667z" fill="#5E74FE" opacity=".25" p-id="25510"></path><path d="M540.444444 542.340741h128.948149c18.962963 0 34.133333-15.17037 34.133333-34.133334s-15.17037-34.133333-34.133333-34.133333h-94.814815v-123.259259c0-18.962963-15.17037-34.133333-34.133334-34.133334s-34.133333 15.17037-34.133333 34.133334v157.392592c0 18.962963 15.17037 34.133333 34.133333 34.133334z" fill="#5E74FE" p-id="25511"></path><path d="M540.444444 542.340741h128.948149c18.962963 0 34.133333-15.17037 34.133333-34.133334s-15.17037-34.133333-34.133333-34.133333h-94.814815v-123.259259c0-18.962963-15.17037-34.133333-34.133334-34.133334s-34.133333 15.17037-34.133333 34.133334v157.392592c0 18.962963 15.17037 34.133333 34.133333 34.133334z" fill="#5E74FE" opacity=".25" p-id="25512"></path></svg>