<?xml version="1.0" standalone="no"?><!DOCTYPE svg PUBLIC "-//W3C//DTD SVG 1.1//EN" "http://www.w3.org/Graphics/SVG/1.1/DTD/svg11.dtd"><svg t="1639361619034" class="icon" viewBox="0 0 1024 1024" version="1.1" xmlns="http://www.w3.org/2000/svg" p-id="3833" xmlns:xlink="http://www.w3.org/1999/xlink" width="200" height="200"><defs><style type="text/css"></style></defs><path d="M521.481481 5.688889C244.622222 5.688889 18.962963 231.348148 18.962963 508.207407s225.659259 502.518519 502.518518 502.518519S1024 785.066667 1024 508.207407 798.340741 5.688889 521.481481 5.688889z m0 948.148148C274.962963 953.837037 75.851852 754.725926 75.851852 508.207407S274.962963 62.577778 521.481481 62.577778 967.111111 263.585185 967.111111 508.207407 766.103704 953.837037 521.481481 953.837037z" p-id="3834"></path><path d="M521.481481 195.318519c-172.562963 0-312.888889 140.325926-312.888888 312.888888s140.325926 312.888889 312.888888 312.888889S834.37037 680.77037 834.37037 508.207407s-140.325926-312.888889-312.888889-312.888888z m0 568.888888c-142.222222 0-256-113.777778-256-256s113.777778-256 256-256S777.481481 367.881481 777.481481 508.207407s-115.674074 256-256 256z" p-id="3835"></path><path d="M650.42963 479.762963H549.925926v-128.948148c0-15.17037-13.274074-28.444444-28.444445-28.444445s-28.444444 13.274074-28.444444 30.340741v157.392593c0 15.17037 13.274074 28.444444 28.444444 28.444444h128.948149c15.17037 0 28.444444-13.274074 28.444444-28.444444s-13.274074-30.340741-28.444444-30.340741z" p-id="3836"></path></svg>