<?xml version="1.0" standalone="no"?><!DOCTYPE svg PUBLIC "-//W3C//DTD SVG 1.1//EN" "http://www.w3.org/Graphics/SVG/1.1/DTD/svg11.dtd"><svg t="1639126229349" class="icon" viewBox="0 0 1024 1024" version="1.1" xmlns="http://www.w3.org/2000/svg" p-id="24619" xmlns:xlink="http://www.w3.org/1999/xlink" width="200" height="200"><defs><style type="text/css"></style></defs><path d="M776.924771 651.977982c-16.910092-5.636697-35.699083 3.757798-41.33578 20.66789-5.636697 16.910092 3.757798 35.699083 20.66789 41.335779 78.913761 26.304587 131.522936 63.882569 131.522936 95.823854 0 54.488073-140.917431 129.644037-372.022019 129.644036s-372.022018-75.155963-372.022018-129.644036c0-31.941284 46.972477-67.640367 122.12844-93.944955 16.910092-5.636697 26.304587-24.425688 20.66789-41.335779-5.636697-16.910092-24.425688-26.304587-41.33578-20.66789-107.097248 35.699083-167.222018 92.066055-167.222018 155.948624 0 127.765138 225.46789 195.405505 437.783486 195.405504s437.783486-69.519266 437.783486-195.405504c0-63.882569-62.00367-120.249541-176.616513-157.827523z" fill="#5E74FE" p-id="24620"></path><path d="M495.089908 843.625688c-93.944954-82.67156-206.678899-332.565138-206.678899-464.088073v-3.757798c-3.757798-18.788991-5.636697-35.699083-5.636697-52.609175 0-140.917431 105.218349-255.530275 232.983486-255.530275 48.851376 0 93.944954 16.910092 131.522936 43.214679 93.944954 41.33578 159.706422 139.038532 165.343119 253.651376 1.878899-15.031193 3.757798-30.062385 3.757798-43.214679 0-176.616514-133.401835-321.291743-298.744954-321.291743s-300.623853 146.554128-300.623853 323.170642c0 155.948624 154.069725 486.634862 278.077064 520.455046z" fill="#5E74FE" p-id="24621"></path><path d="M585.277064 268.682569c0-37.577982-30.062385-67.640367-67.640367-67.640367s-67.640367 30.062385-67.640367 67.640367 30.062385 67.640367 67.640367 67.640367 67.640367-30.062385 67.640367-67.640367z" fill="#5E74FE" opacity=".25" p-id="24622"></path><path d="M515.757798 781.622018c69.519266 0 232.983486-296.866055 232.983486-458.451376 0-88.308257-41.33578-165.343119-101.46055-210.436697-30.062385-13.152294-62.00367-20.66789-97.702752-20.66789-142.79633 0-259.288073 125.886239-261.166973 283.713762 28.183486 163.46422 167.222018 405.842202 227.346789 405.842201z m-133.401835-512.939449c0-73.277064 60.124771-133.401835 133.401835-133.401835s133.401835 60.124771 133.401835 133.401835-60.124771 133.401835-133.401835 133.401835-133.401835-60.124771-133.401835-133.401835z" fill="#5E74FE" opacity=".25" p-id="24623"></path><path d="M515.757798 847.383486c-7.515596 0-13.152294-1.878899-20.66789-3.757798 18.788991 16.910092 37.577982 26.304587 54.488074 26.304587 105.218349 0 263.045872-332.565138 263.045871-492.271559v-13.152294c-24.425688 170.979817-169.100917 482.877064-296.866055 482.877064z" fill="#5E74FE" opacity=".25" p-id="24624"></path><path d="M647.280734 112.733945c62.00367 45.093578 101.46055 124.007339 101.46055 210.436697 0 161.585321-163.46422 458.451376-232.983486 458.451376-60.124771 0-201.042202-242.377982-227.346789-405.842201v3.757798c0 131.522936 112.733945 383.295413 206.678899 464.088073 7.515596 1.878899 15.031193 3.757798 20.66789 3.757798C643.522936 847.383486 788.198165 535.486239 812.623853 366.385321c-5.636697-116.491743-71.398165-212.315596-165.343119-253.651376z" fill="#5E74FE" p-id="24625"></path><path d="M647.280734 112.733945c62.00367 45.093578 101.46055 124.007339 101.46055 210.436697 0 161.585321-163.46422 458.451376-232.983486 458.451376-60.124771 0-201.042202-242.377982-227.346789-405.842201v3.757798c0 131.522936 112.733945 383.295413 206.678899 464.088073 7.515596 1.878899 15.031193 3.757798 20.66789 3.757798C643.522936 847.383486 788.198165 535.486239 812.623853 366.385321c-5.636697-116.491743-71.398165-212.315596-165.343119-253.651376z" fill="#5E74FE" opacity=".25" p-id="24626"></path><path d="M651.038532 268.682569c0-73.277064-60.124771-133.401835-133.401835-133.401835s-133.401835 60.124771-133.401835 133.401835 60.124771 133.401835 133.401835 133.401835 133.401835-60.124771 133.401835-133.401835z m-202.921101 0c0-37.577982 30.062385-67.640367 67.640367-67.640367s67.640367 30.062385 67.640367 67.640367-30.062385 67.640367-67.640367 67.640367-67.640367-30.062385-67.640367-67.640367z" fill="#5E74FE" p-id="24627"></path></svg>