<?xml version="1.0" standalone="no"?><!DOCTYPE svg PUBLIC "-//W3C//DTD SVG 1.1//EN" "http://www.w3.org/Graphics/SVG/1.1/DTD/svg11.dtd"><svg t="1639128632786" class="icon" viewBox="0 0 1024 1024" version="1.1" xmlns="http://www.w3.org/2000/svg" p-id="4187" xmlns:xlink="http://www.w3.org/1999/xlink" width="200" height="200"><defs><style type="text/css"></style></defs><path d="M644.740741 47.407407H398.222222C204.8 47.407407 47.407407 204.8 47.407407 398.222222v246.518519c0 193.422222 157.392593 350.814815 350.814815 350.814815h246.518519c193.422222 0 350.814815-157.392593 350.814815-350.814815V398.222222c0-193.422222-157.392593-350.814815-350.814815-350.814815zM938.666667 644.740741c0 161.185185-130.844444 293.925926-293.925926 293.925926H398.222222c-161.185185 0-293.925926-130.844444-293.925926-293.925926V398.222222c0-161.185185 130.844444-293.925926 293.925926-293.925926h246.518519c161.185185 0 293.925926 130.844444 293.925926 293.925926v246.518519z"  p-id="4188"></path><path d="M688.355556 709.214815c-155.496296 106.192593-324.266667 3.792593-331.851852 0-13.274074-7.585185-30.340741-3.792593-39.822223 9.481481-7.585185 13.274074-3.792593 30.340741 9.481482 39.822223 5.688889 3.792593 92.918519 58.785185 206.696296 58.785185 58.785185 0 123.259259-15.17037 187.733334-58.785185 13.274074-9.481481 17.066667-26.548148 7.585185-39.822223-7.585185-15.17037-26.548148-18.962963-39.822222-9.481481z"  p-id="4189"></path></svg>