<?xml version="1.0" standalone="no"?><!DOCTYPE svg PUBLIC "-//W3C//DTD SVG 1.1//EN" "http://www.w3.org/Graphics/SVG/1.1/DTD/svg11.dtd"><svg t="1639126421103" class="icon" viewBox="0 0 1033 1024" version="1.1" xmlns="http://www.w3.org/2000/svg" p-id="25208" xmlns:xlink="http://www.w3.org/1999/xlink" width="201.7578125" height="200"><defs><style type="text/css"></style></defs><path d="M570.785185 881.777778c-130.844444 0-238.933333-98.607407-252.207407-225.659259C455.111111 644.740741 561.303704 530.962963 561.303704 392.533333V140.325926h-146.014815c-15.17037 0-28.444444 13.274074-28.444445 28.444444s13.274074 28.444444 28.444445 28.444445h89.125926v193.422222c0 113.777778-92.918519 206.696296-206.696296 206.696296h-22.755556c-113.777778 0-206.696296-92.918519-206.696296-206.696296V197.214815h89.125926c15.17037 0 28.444444-13.274074 28.444444-28.444445S170.666667 140.325926 155.496296 140.325926H9.481481v250.311111c0 142.222222 111.881481 257.896296 252.207408 263.585185 13.274074 157.392593 147.911111 282.548148 309.096296 282.548148 153.6 0 280.651852-111.881481 305.303704-257.896296-18.962963-1.896296-37.925926-5.688889-54.992593-15.17037-18.962963 125.155556-123.259259 218.074074-250.311111 218.074074z" fill="#5E74FE" p-id="25209"></path><path d="M754.725926 491.140741v-5.688889c0-60.681481 49.303704-109.985185 109.985185-109.985185 37.925926 0 72.059259 18.962963 92.918519 49.303703 39.822222 24.651852 66.37037 68.266667 66.37037 117.570371 5.688889-17.066667 9.481481-36.02963 9.481481-54.992593 0-92.918519-75.851852-166.874074-166.874074-166.874074-92.918519 0-166.874074 75.851852-166.874074 166.874074 0 58.785185 30.340741 109.985185 73.955556 140.325926-17.066667-22.755556-26.548148-51.2-26.548148-83.437037-1.896296-18.962963 1.896296-36.02963 7.585185-53.096296z" fill="#5E74FE" p-id="25210"></path><path d="M879.881481 652.325926c0 9.481481-1.896296 18.962963-3.792592 28.444444h7.585185c77.748148 0 138.42963-62.577778 138.42963-138.429629v-1.896297c-18.962963 60.681481-73.955556 106.192593-142.222223 111.881482zM754.725926 491.140741c3.792593 58.785185 51.2 104.296296 109.985185 104.296296 60.681481 0 109.985185-49.303704 109.985185-109.985185 0-22.755556-7.585185-43.614815-18.962963-60.681482-20.859259-13.274074-45.511111-20.859259-73.955555-20.859259-54.992593 0-106.192593 36.02963-127.051852 87.22963zM773.688889 625.777778c13.274074 17.066667 30.340741 32.237037 49.303704 41.718518 0-5.688889 1.896296-13.274074 1.896296-18.962963-18.962963-5.688889-36.02963-13.274074-51.2-22.755555z" fill="#5E74FE" opacity=".25" p-id="25211"></path><path d="M1024 540.444444c0-49.303704-26.548148-92.918519-66.37037-117.57037 11.377778 17.066667 18.962963 37.925926 18.962963 60.681482 0 60.681481-49.303704 109.985185-109.985186 109.985185-58.785185 0-108.088889-47.407407-109.985185-104.296297-5.688889 15.17037-9.481481 32.237037-9.481481 51.2 0 30.340741 9.481481 58.785185 26.548148 83.437037 15.17037 9.481481 32.237037 17.066667 51.2 22.755556 0 5.688889-1.896296 13.274074-1.896296 18.962963 17.066667 9.481481 36.02963 13.274074 54.992592 15.17037 1.896296-9.481481 3.792593-18.962963 3.792593-28.444444 66.37037-5.688889 121.362963-51.2 142.222222-111.881482z" fill="#5E74FE" p-id="25212"></path><path d="M1024 540.444444c0-49.303704-26.548148-92.918519-66.37037-117.57037 11.377778 17.066667 18.962963 37.925926 18.962963 60.681482 0 60.681481-49.303704 109.985185-109.985186 109.985185-58.785185 0-108.088889-47.407407-109.985185-104.296297-5.688889 15.17037-9.481481 32.237037-9.481481 51.2 0 30.340741 9.481481 58.785185 26.548148 83.437037 15.17037 9.481481 32.237037 17.066667 51.2 22.755556 0 5.688889-1.896296 13.274074-1.896296 18.962963 17.066667 9.481481 36.02963 13.274074 54.992592 15.17037 1.896296-9.481481 3.792593-18.962963 3.792593-28.444444 66.37037-5.688889 121.362963-51.2 142.222222-111.881482z" fill="#5E74FE" opacity=".25" p-id="25213"></path></svg>