<?xml version="1.0" standalone="no"?><!DOCTYPE svg PUBLIC "-//W3C//DTD SVG 1.1//EN" "http://www.w3.org/Graphics/SVG/1.1/DTD/svg11.dtd"><svg t="1639126416669" class="icon" viewBox="0 0 1033 1024" version="1.1" xmlns="http://www.w3.org/2000/svg" p-id="25068" xmlns:xlink="http://www.w3.org/1999/xlink" width="201.7578125" height="200"><defs><style type="text/css"></style></defs><path d="M1033.481481 485.451852c0-92.918519-75.851852-166.874074-166.874074-166.874074-92.918519 0-166.874074 75.851852-166.874074 166.874074 0 77.748148 53.096296 144.118519 125.155556 163.081481-9.481481 130.844444-119.466667 233.244444-252.207408 233.244445-130.844444 0-238.933333-98.607407-252.207407-225.659259C455.111111 644.740741 561.303704 530.962963 561.303704 392.533333V140.325926h-146.014815c-15.17037 0-28.444444 13.274074-28.444445 28.444444s13.274074 28.444444 28.444445 28.444445h89.125926v193.422222c0 113.777778-92.918519 206.696296-206.696296 206.696296h-22.755556c-113.777778 0-206.696296-92.918519-206.696296-206.696296V197.214815h89.125926c15.17037 0 28.444444-13.274074 28.444444-28.444445S170.666667 140.325926 155.496296 140.325926H9.481481v250.311111c0 142.222222 111.881481 257.896296 252.207408 263.585185 13.274074 157.392593 147.911111 282.548148 309.096296 282.548148 163.081481 0 297.718519-127.051852 309.096296-286.34074 87.22963-5.688889 153.6-77.748148 153.6-164.977778z m-166.874074 111.881481c-60.681481 0-109.985185-49.303704-109.985185-109.985185s49.303704-109.985185 109.985185-109.985185c60.681481 0 109.985185 49.303704 109.985186 109.985185s-49.303704 109.985185-109.985186 109.985185z" p-id="25069"></path></svg>