<?xml version="1.0" standalone="no"?><!DOCTYPE svg PUBLIC "-//W3C//DTD SVG 1.1//EN" "http://www.w3.org/Graphics/SVG/1.1/DTD/svg11.dtd"><svg t="1639128636514" class="icon" viewBox="0 0 1024 1024" version="1.1" xmlns="http://www.w3.org/2000/svg" p-id="4332" xmlns:xlink="http://www.w3.org/1999/xlink" width="200" height="200"><defs><style type="text/css"></style></defs><path d="M644.740741 47.407407H398.222222C204.8 47.407407 47.407407 204.8 47.407407 398.222222v246.518519c0 193.422222 157.392593 350.814815 350.814815 350.814815h246.518519c193.422222 0 350.814815-157.392593 350.814815-350.814815V398.222222c0-193.422222-157.392593-350.814815-350.814815-350.814815z m341.333333 625.777778C986.074074 836.266667 855.22963 967.111111 692.148148 967.111111h-246.518518c-64.474074 0-125.155556-20.859259-172.562963-56.888889-100.503704-47.407407-168.77037-147.911111-168.770371-265.481481V398.222222c0-161.185185 130.844444-293.925926 293.925926-293.925926h246.518519c64.474074 0 125.155556 20.859259 172.562963 56.888889 100.503704 47.407407 168.77037 147.911111 168.77037 265.481482v246.518518z" fill="#5E74FE" p-id="4333"></path><path d="M644.740741 938.666667c161.185185 0 293.925926-130.844444 293.925926-293.925926V398.222222c0-96.711111-47.407407-182.044444-119.466667-235.140741-37.925926-18.962963-81.540741-28.444444-125.155556-28.444444H445.62963C282.548148 132.740741 151.703704 263.585185 151.703704 426.666667v248.414814c0 96.711111 47.407407 182.044444 119.466666 235.140741 37.925926 18.962963 81.540741 28.444444 125.155556 28.444445H644.740741zM320.474074 718.696296c7.585185-13.274074 24.651852-17.066667 36.02963-7.585185 7.585185 5.688889 176.355556 108.088889 333.748148 0 11.377778-7.585185 28.444444-5.688889 37.925926 7.585185 7.585185 11.377778 5.688889 28.444444-7.585185 37.925926-64.474074 43.614815-128.948148 58.785185-187.733334 58.785185-111.881481 0-199.111111-54.992593-204.8-56.888888-13.274074-11.377778-17.066667-28.444444-7.585185-39.822223z" fill="#5E74FE" opacity=".25" p-id="4334"></path><path d="M819.2 161.185185c72.059259 53.096296 119.466667 138.42963 119.466667 235.140741V644.740741c0 161.185185-130.844444 293.925926-293.925926 293.925926H398.222222c-45.511111 0-87.22963-11.377778-125.155555-28.444445 49.303704 36.02963 108.088889 56.888889 172.562963 56.888889h248.414814C855.22963 967.111111 986.074074 836.266667 986.074074 673.185185v-246.518518c0-117.57037-68.266667-218.074074-166.874074-265.481482z" fill="#5E74FE" p-id="4335"></path><path d="M819.2 161.185185c72.059259 53.096296 119.466667 138.42963 119.466667 235.140741V644.740741c0 161.185185-130.844444 293.925926-293.925926 293.925926H398.222222c-45.511111 0-87.22963-11.377778-125.155555-28.444445 49.303704 36.02963 108.088889 56.888889 172.562963 56.888889h248.414814C855.22963 967.111111 986.074074 836.266667 986.074074 673.185185v-246.518518c0-117.57037-68.266667-218.074074-166.874074-265.481482z" fill="#5E74FE" opacity=".25" p-id="4336"></path><path d="M720.592593 754.725926c11.377778-7.585185 15.17037-24.651852 7.585185-37.925926-7.585185-11.377778-24.651852-15.17037-37.925926-7.585185-157.392593 108.088889-326.162963 3.792593-333.748148 0-13.274074-7.585185-28.444444-3.792593-36.02963 7.585185-7.585185 13.274074-3.792593 28.444444 7.585185 36.02963 5.688889 3.792593 92.918519 56.888889 204.8 56.888889 58.785185 3.792593 123.259259-11.377778 187.733334-54.992593z" fill="#5E74FE" p-id="4337"></path><path d="M720.592593 754.725926c11.377778-7.585185 15.17037-24.651852 7.585185-37.925926-7.585185-11.377778-24.651852-15.17037-37.925926-7.585185-157.392593 108.088889-326.162963 3.792593-333.748148 0-13.274074-7.585185-28.444444-3.792593-36.02963 7.585185-7.585185 13.274074-3.792593 28.444444 7.585185 36.02963 5.688889 3.792593 92.918519 56.888889 204.8 56.888889 58.785185 3.792593 123.259259-11.377778 187.733334-54.992593z" fill="#5E74FE" opacity=".25" p-id="4338"></path></svg>