<?xml version="1.0" standalone="no"?><!DOCTYPE svg PUBLIC "-//W3C//DTD SVG 1.1//EN" "http://www.w3.org/Graphics/SVG/1.1/DTD/svg11.dtd"><svg t="1639119052140" class="icon" viewBox="0 0 1536 1024" version="1.1" xmlns="http://www.w3.org/2000/svg" p-id="1903" xmlns:xlink="http://www.w3.org/1999/xlink" width="300" height="200"><defs><style type="text/css"></style></defs><path d="M0 0h1433.6c56.32 0 102.4 46.08 102.4 102.4v921.6L0 0z" fill="#FF9900" p-id="1904"></path><path d="M752.64 273.92l250.88 145.92-23.04 38.4-250.88-145.92 23.04-38.4z m81.92-76.8l194.56 112.64-20.48 38.4-194.56-112.64 20.48-38.4zM872.96 102.4l217.6 125.44-23.04 38.4-217.6-125.44 23.04-38.4zM1013.76 427.52c30.72 12.8 61.44 25.6 89.6 35.84-5.12 7.68-10.24 12.8-12.8 20.48 35.84-23.04 69.12-58.88 102.4-107.52 5.12-7.68 12.8-23.04 25.6-40.96l-17.92-10.24 17.92-30.72 138.24 79.36-17.92 30.72-43.52 30.72 35.84 20.48-17.92 30.72c-23.04 25.6-48.64 46.08-79.36 58.88 7.68 20.48 15.36 38.4 28.16 53.76-17.92 7.68-30.72 12.8-40.96 20.48-10.24-17.92-17.92-38.4-23.04-61.44-23.04 5.12-48.64 7.68-76.8 7.68 0-15.36-2.56-30.72-2.56-43.52 25.6 2.56 51.2 0 74.24-5.12-2.56-25.6 0-51.2 5.12-79.36-35.84 51.2-76.8 84.48-120.32 99.84 0-15.36-2.56-28.16-5.12-40.96l-71.68-25.6 12.8-43.52z m110.08-102.4c7.68 2.56 12.8 7.68 23.04 12.8 10.24-7.68 23.04-12.8 38.4-23.04l20.48 33.28c-43.52 23.04-76.8 40.96-102.4 51.2 15.36 7.68 30.72 12.8 43.52 17.92-7.68 7.68-12.8 17.92-20.48 30.72-35.84-15.36-61.44-25.6-81.92-33.28l7.68-33.28c15.36-2.56 35.84-10.24 61.44-23.04-12.8-5.12-23.04-10.24-33.28-15.36l7.68-35.84c23.04-10.24 53.76-28.16 92.16-58.88l25.6 30.72c-35.84 20.48-64 33.28-81.92 46.08z m117.76 46.08c-12.8 51.2-17.92 94.72-12.8 128 17.92-10.24 35.84-20.48 51.2-38.4l-38.4-23.04 17.92-30.72 40.96-28.16-46.08-28.16c-5.12 7.68-10.24 15.36-12.8 20.48z" fill="#FEFEFF" p-id="1905"></path></svg>