<?xml version="1.0" standalone="no"?><!DOCTYPE svg PUBLIC "-//W3C//DTD SVG 1.1//EN" "http://www.w3.org/Graphics/SVG/1.1/DTD/svg11.dtd"><svg t="1639124014303" class="icon" viewBox="0 0 1024 1024" version="1.1" xmlns="http://www.w3.org/2000/svg" p-id="14175" xmlns:xlink="http://www.w3.org/1999/xlink" width="200" height="200"><defs><style type="text/css"></style></defs><path d="M630.299445 420.19963l-123.031423 123.031424-75.711645-75.711645c-11.356747-11.356747-30.284658-11.356747-41.641405 0-11.356747 11.356747-11.356747 30.284658 0 41.641404l115.460259 115.460259 164.672828-164.672828c11.356747-11.356747 11.356747-30.284658 0-41.641405-9.463956-9.463956-28.391867-9.463956-39.748614 1.892791z" fill="#5E74FE" p-id="14176"></path><path d="M512.946396 1.892791C230.920518 1.892791 1.892791 230.920518 1.892791 512.946396s229.027726 511.053604 511.053605 511.053604 511.053604-229.027726 511.053604-511.053604-230.920518-511.053604-511.053604-511.053605z m0 963.430684c-249.848429 0-454.269871-202.528651-454.269871-452.377079S261.205176 60.569316 511.053604 60.569316s454.269871 202.528651 454.269871 452.37708S762.794824 965.323475 512.946396 965.323475z" fill="#5E74FE" p-id="14177"></path><path d="M512.946396 193.064695c-176.029575 0-317.988909 141.959335-317.98891 317.988909s141.959335 317.988909 317.98891 317.98891S830.935305 687.083179 830.935305 511.053604c0-174.136784-143.852126-317.988909-317.988909-317.988909z m0 579.194085c-143.852126 0-261.205176-117.35305-261.205176-261.205176s117.35305-261.205176 261.205176-261.205175S774.151571 367.201479 774.151571 511.053604s-119.245841 261.205176-261.205175 261.205176z" fill="#5E74FE" p-id="14178"></path><path d="M564.051756 535.659889m-270.669131 0a270.669131 270.669131 0 1 0 541.338262 0 270.669131 270.669131 0 1 0-541.338262 0Z" fill="#5E74FE" opacity=".25" p-id="14179"></path></svg>